<?xml version="1.0" encoding="utf-8"?>
<!-- Generator: Adobe Illustrator 19.1.0, SVG Export Plug-In . SVG Version: 6.00 Build 0)  -->
<svg version="1.1" id="Layer_1" xmlns="http://www.w3.org/2000/svg" xmlns:xlink="http://www.w3.org/1999/xlink" x="0px" y="0px"
	 viewBox="-275 373 60.1 47" style="enable-background:new -275 373 60.1 47;" xml:space="preserve">
<style type="text/css">
	.st0{fill:#EDEDED;}
	.st1{display:none;opacity:0.15;enable-background:new    ;}
	.st2{display:none;opacity:5.000000e-002;fill:#F38087;enable-background:new    ;}
	.st3{display:none;fill:#FFFFFF;}
	.st4{fill:#FFFFFF;}
	.st5{fill:#7D8081;}
</style>
<g id="NOTÃCIAS">
	<rect x="-355" y="372" class="st1" width="350" height="50"/>
	<rect x="-355" y="296.2" class="st2" width="1360" height="606"/>
	<rect x="-275" y="371.8" class="st3" width="1200" height="600"/>
	<g>
		<path class="st4" d="M-218.6,402.4l-16.8,10.6l0.5-5.7c-2.5,1.6-4.5,5.2-4.5,8.2c0,2.9,2,4.1,4.5,2.5l16.3-10.3
			c1.2-0.8,2.3-2.6,2.3-4.1C-216.4,402.2-217.4,401.7-218.6,402.4z"/>
		<polygon class="st4" points="-252,379 -266.8,394.5 -235.9,413.9 -216.4,401.4 		"/>
		<path class="st4" d="M-236.1,419.6c-0.6-0.5-1.2-1-1.6-1.6c-0.1,0-0.3-0.1-0.4-0.1c-0.5-0.3-0.8-1-0.8-2.1c0-2.6,1.9-6,4.1-7.3
			l17.6-11.1c0.5-0.3,0.6-0.9,0.3-1.4c-0.1-0.1-0.2-0.2-0.3-0.3l0,0l-33.6-21.1l-1.9-1.2L-271,385c-2.2,1.4-4,4.6-4,7.3
			c0,2.7,1.8,5.8,4,7.3l31.6,19.9c0.1,0.1,0.2,0.1,0.3,0.2C-238.2,420.1-237.2,420.1-236.1,419.6
			C-236.1,419.7-236.1,419.7-236.1,419.6z"/>
		<path class="st5" d="M-216.1,401.7c-0.7-0.4-1.7-0.3-2.6,0.2l-16.6,10.5c-0.5,0.3-0.6,0.9-0.3,1.4c0.3,0.5,0.9,0.6,1.4,0.3
			l16.6-10.4c0.4-0.2,0.5-0.2,0.6-0.2c0,0,0.1,0.2,0.1,0.6c0,1.1-0.8,2.6-1.8,3.2l-16.1,10.1c-0.9,0.5-1.6,0.7-2.1,0.4
			c-0.5-0.3-0.8-1-0.8-2c0-2.6,1.8-5.9,4-7.2l18.3-11.6c0.3-0.2,0.5-0.5,0.5-0.8c0-0.3-0.2-0.7-0.5-0.8l-35.2-22.2
			c-0.3-0.2-0.7-0.2-1.1,0l-18.5,11.6c-2.6,1.7-4.7,5.4-4.7,8.5v0.5c0,3.1,2.1,6.9,4.7,8.5l27.6,17.4c0.5,0.3,1.1,0.2,1.4-0.3
			s0.2-1.1-0.3-1.4l-27.6-17.3c-2-1.3-3.8-4.4-3.8-6.8v-0.5c0-2.4,1.7-5.5,3.8-6.8l18-11.3l33.3,21l-17,10.7
			c-2.8,1.7-4.9,5.7-4.9,8.9c0,1.8,0.6,3.1,1.8,3.8c0.5,0.3,1,0.4,1.5,0.4c0.8,0,1.7-0.3,2.6-0.9l16.1-10.1c1.5-1,2.7-3.1,2.7-4.9
			C-214.9,403-215.4,402.2-216.1,401.7z"/>
		<path class="st5" d="M-228.3,397.1c0.3,0,0.6-0.2,0.8-0.5c0.3-0.5,0.2-1.1-0.3-1.4l-22.8-14.3c-0.5-0.3-1.1-0.2-1.4,0.3
			s-0.2,1.1,0.3,1.4l22.9,14.4C-228.7,397.1-228.5,397.1-228.3,397.1z"/>
		<path class="st5" d="M-232.2,399.8c0.3,0,0.7-0.2,0.8-0.5c0.3-0.5,0.2-1.1-0.3-1.4l-9.6-6c-0.5-0.3-1.1-0.2-1.4,0.3
			c-0.3,0.5-0.2,1.1,0.3,1.4l9.6,6C-232.6,399.7-232.4,399.8-232.2,399.8z"/>
		<path class="st5" d="M-245.4,394.5c-0.5-0.3-1.1-0.1-1.4,0.3c-0.3,0.5-0.1,1.1,0.3,1.4l9.7,6.1c0.2,0.1,0.3,0.2,0.5,0.2
			c0.3,0,0.7-0.2,0.8-0.5c0.3-0.5,0.1-1.1-0.3-1.4L-245.4,394.5z"/>
		<path class="st5" d="M-255.8,383.5l-8.2,5.2c-0.3,0.2-0.5,0.5-0.5,0.8s0.2,0.7,0.5,0.8l9.8,6.1c0.2,0.1,0.3,0.1,0.5,0.1
			s0.4-0.1,0.5-0.2l2.2-1.4c0.5-0.3,0.6-0.9,0.3-1.4s-0.9-0.6-1.4-0.3l-1.7,1.1l-7.9-4.9l6.4-4l7.8,4.9l-0.8,0.7
			c-0.5,0.3-0.6,0.9-0.3,1.4c0.3,0.5,0.9,0.6,1.4,0.3l2.2-1.4c0.3-0.2,0.5-0.5,0.5-0.8s-0.2-0.7-0.5-0.8l-9.6-6
			C-255,383.3-255.4,383.3-255.8,383.5z"/>
		<path class="st5" d="M-239.3,404.5c0.3-0.5,0.1-1.1-0.3-1.4l-9.8-6.1c-0.5-0.3-1.1-0.1-1.4,0.3c-0.3,0.5-0.1,1.1,0.3,1.4l9.8,6.1
			c0.2,0.1,0.3,0.1,0.5,0.1C-239.8,405-239.5,404.8-239.3,404.5z"/>
		<path class="st5" d="M-267.8,391.9c-0.3,0.5-0.2,1.1,0.3,1.4l24.2,15c0.2,0.1,0.3,0.1,0.5,0.1c0.3,0,0.7-0.2,0.8-0.5
			c0.3-0.5,0.1-1.1-0.3-1.4l-24.2-15C-266.9,391.3-267.6,391.4-267.8,391.9z"/>
	</g>
</g>
</svg>
